<svg width="300" height="300" viewBox="0 0 300 300" fill="none" xmlns="http://www.w3.org/2000/svg">
<rect width="300" height="300" rx="150" fill="#1E1E1E"/>
<path d="M150 136.418V165" stroke="#1E90FF" stroke-width="10" stroke-linecap="round" stroke-linejoin="round"/>
<path d="M150 75V97.5" stroke="#1E90FF" stroke-width="10" stroke-linecap="round" stroke-linejoin="round"/>
<path d="M202.5 157.5V112.5C202.5 108.522 200.92 104.706 198.107 101.893C195.294 99.0804 191.478 97.5 187.5 97.5H112.5C108.522 97.5 104.706 99.0804 101.893 101.893C99.0804 104.706 97.5 108.522 97.5 112.5V157.5" stroke="#1E90FF" stroke-width="10" stroke-linecap="round" stroke-linejoin="round"/>
<path d="M205.35 210C213.418 196.384 217.618 180.826 217.5 165L156.09 137.708C154.173 136.856 152.098 136.416 150 136.416C147.902 136.416 145.827 136.856 143.91 137.708L82.5001 165C82.1529 186.328 89.6529 207.04 103.575 223.2" stroke="#1E90FF" stroke-width="10" stroke-linecap="round" stroke-linejoin="round"/>
<path d="M75 217.5C79.5 221.25 84 225 93.75 225C112.5 225 112.5 210 131.25 210C141 210 145.5 213.75 150 217.5C154.5 221.25 159 225 168.75 225C187.5 225 187.5 210 206.25 210C216 210 220.5 213.75 225 217.5" stroke="#1E90FF" stroke-width="10" stroke-linecap="round" stroke-linejoin="round"/>
</svg>
