<svg width="310" height="310" viewBox="0 0 310 310" fill="none" xmlns="http://www.w3.org/2000/svg">
<path d="M155 127.835V185" stroke="#1E90FF" stroke-width="10" stroke-linecap="round" stroke-linejoin="round"/>
<path d="M155 5V50" stroke="#1E90FF" stroke-width="10" stroke-linecap="round" stroke-linejoin="round"/>
<path d="M260 170V80C260 72.0435 256.839 64.4129 251.213 58.7868C245.587 53.1607 237.957 50 230 50H80.0001C72.0436 50 64.413 53.1607 58.7869 58.7868C53.1608 64.4129 50.0001 72.0435 50.0001 80V170" stroke="#1E90FF" stroke-width="10" stroke-linecap="round" stroke-linejoin="round"/>
<path d="M265.7 275C281.835 247.769 290.237 216.652 290 185L167.18 130.415C163.345 128.711 159.196 127.831 155 127.831C150.804 127.831 146.655 128.711 142.82 130.415L20.0001 185C19.3057 227.655 34.3058 269.079 62.1501 301.4" stroke="#1E90FF" stroke-width="10" stroke-linecap="round" stroke-linejoin="round"/>
<path d="M5.00012 290C14.0001 297.5 23.0001 305 42.5001 305C80.0001 305 80.0001 275 117.5 275C137 275 146 282.5 155 290C164 297.5 173 305 192.5 305C230 305 230 275 267.5 275C287 275 296 282.5 305 290" stroke="#1E90FF" stroke-width="10" stroke-linecap="round" stroke-linejoin="round"/>
</svg>
